<svg width="353" height="66" viewBox="0 0 353 66" fill="none" xmlns="http://www.w3.org/2000/svg">
<path d="M23.9585 5.66031C23.9221 5.57896 23.863 5.50994 23.7882 5.46167C23.7134 5.41339 23.6262 5.38795 23.5373 5.38843H10.4995C10.4212 5.38857 10.3441 5.40837 10.2755 5.44605C10.2068 5.48372 10.1486 5.53805 10.1064 5.60406L0.0822939 21.5415C0.0340351 21.6109 0.00583936 21.6923 0.000813382 21.7768C-0.00421259 21.8612 0.0141262 21.9454 0.0538094 22.02C0.0934926 22.0947 0.15298 22.1569 0.225716 22.1998C0.298451 22.2428 0.381612 22.2648 0.466035 22.2634H7.64479L1.30839 34.6853C1.27201 34.7592 1.25491 34.8411 1.25869 34.9234C1.26247 35.0056 1.287 35.0856 1.33 35.1558C1.37299 35.2261 1.43305 35.2842 1.50456 35.3249C1.57607 35.3656 1.6567 35.3874 1.73893 35.3884H4.54679C4.61175 35.3889 4.67608 35.3757 4.7357 35.3499C4.79532 35.3241 4.84892 35.2861 4.89309 35.2384L21.3378 17.4353C21.4031 17.3687 21.447 17.284 21.4639 17.1922C21.4809 17.1003 21.47 17.0055 21.4328 16.9199C21.3956 16.8343 21.3337 16.7618 21.2551 16.7116C21.1765 16.6615 21.0847 16.636 20.9915 16.6384H14.6832L23.8836 6.15718C23.9429 6.0906 23.9816 6.00815 23.9949 5.91991C24.0082 5.83167 23.9955 5.74146 23.9585 5.66031Z" fill="#2B788B"/>
<path d="M55.28 17.5484C57.3867 17.5484 59.3067 17.9884 61.04 18.8684C62.7733 19.7218 64.1333 20.8818 65.12 22.3484C66.1333 23.8151 66.64 25.3884 66.64 27.0684C66.64 29.2551 65.9467 31.1618 64.56 32.7884C63.1733 34.4151 61.2933 35.6551 58.92 36.5084C56.5467 37.3618 53.8933 37.7884 50.96 37.7884C47.9733 37.7884 45.3067 37.2018 42.96 36.0284C40.64 34.8284 38.8267 33.1751 37.52 31.0684C36.24 28.9618 35.6 26.5618 35.6 23.8684C35.6 18.5084 37.08 14.5218 40.04 11.9084C43.0267 9.26843 47.04 7.94843 52.08 7.94843C58.2133 7.94843 63.0533 9.49509 66.6 12.5884C65 14.2951 63.5333 16.1751 62.2 18.2284C61.1333 17.4284 59.6267 16.7884 57.68 16.3084C55.76 15.8018 54.04 15.5484 52.52 15.5484C50.2 15.5484 48.2533 16.1351 46.68 17.3084C45.1067 18.4551 44.1467 20.1084 43.8 22.2684C43.7733 22.4018 43.76 22.5884 43.76 22.8284C45.04 20.9618 46.72 19.6151 48.8 18.7884C50.9067 17.9618 53.0667 17.5484 55.28 17.5484ZM51.36 30.1884C52.3733 30.1884 53.32 30.0551 54.2 29.7884C55.08 29.4951 55.7733 29.1084 56.28 28.6284C56.7867 28.1218 57.04 27.5884 57.04 27.0284C57.04 26.1484 56.48 25.4018 55.36 24.7884C54.2667 24.1484 52.9333 23.8284 51.36 23.8284C49.7867 23.8284 48.44 24.1484 47.32 24.7884C46.2267 25.4018 45.68 26.1484 45.68 27.0284C45.68 27.5884 45.9333 28.1218 46.44 28.6284C46.9467 29.1084 47.64 29.4951 48.52 29.7884C49.4 30.0551 50.3467 30.1884 51.36 30.1884ZM85.8178 37.7884C80.0845 37.7884 75.8578 36.4684 73.1378 33.8284C70.4178 31.1884 69.0578 27.5218 69.0578 22.8284C69.0578 18.1618 70.4178 14.5218 73.1378 11.9084C75.8845 9.26843 80.1111 7.94843 85.8178 7.94843C91.5245 7.94843 95.7378 9.26843 98.4578 11.9084C101.178 14.5218 102.538 18.1618 102.538 22.8284C102.538 27.5218 101.178 31.1884 98.4578 33.8284C95.7378 36.4684 91.5245 37.7884 85.8178 37.7884ZM85.8578 30.7884C88.3111 30.7884 90.0978 30.0418 91.2178 28.5484C92.3378 27.0284 92.8978 25.1218 92.8978 22.8284C92.8978 20.5618 92.3378 18.6818 91.2178 17.1884C90.0978 15.6684 88.3111 14.9084 85.8578 14.9084C83.3245 14.9084 81.4845 15.6684 80.3378 17.1884C79.2178 18.6818 78.6578 20.5618 78.6578 22.8284C78.6578 25.0951 79.2178 26.9884 80.3378 28.5084C81.4845 30.0284 83.3245 30.7884 85.8578 30.7884ZM121.698 37.7884C115.964 37.7884 111.738 36.4684 109.018 33.8284C106.298 31.1884 104.938 27.5218 104.938 22.8284C104.938 18.1618 106.298 14.5218 109.018 11.9084C111.764 9.26843 115.991 7.94843 121.698 7.94843C127.404 7.94843 131.618 9.26843 134.338 11.9084C137.058 14.5218 138.418 18.1618 138.418 22.8284C138.418 27.5218 137.058 31.1884 134.338 33.8284C131.618 36.4684 127.404 37.7884 121.698 37.7884ZM121.738 30.7884C124.191 30.7884 125.978 30.0418 127.098 28.5484C128.218 27.0284 128.778 25.1218 128.778 22.8284C128.778 20.5618 128.218 18.6818 127.098 17.1884C125.978 15.6684 124.191 14.9084 121.738 14.9084C119.204 14.9084 117.364 15.6684 116.218 17.1884C115.098 18.6818 114.538 20.5618 114.538 22.8284C114.538 25.0951 115.098 26.9884 116.218 28.5084C117.364 30.0284 119.204 30.7884 121.738 30.7884Z" fill="black"/>
<path d="M154.577 19.8684H161.697V27.6684H154.577V34.8284H146.777V27.6684H139.617V19.8684H146.777V12.7084H154.577V19.8684Z" fill="#2B788B"/>
<path d="M27.004 60.3884V49.1884H31.612C32.604 49.1884 33.452 49.3484 34.156 49.6684C34.8707 49.9884 35.42 50.4471 35.804 51.0444C36.188 51.6418 36.38 52.3511 36.38 53.1724C36.38 53.9938 36.188 54.7031 35.804 55.3004C35.42 55.8978 34.8707 56.3564 34.156 56.6764C33.452 56.9964 32.604 57.1564 31.612 57.1564H28.156L29.084 56.1804V60.3884H27.004ZM29.084 56.4044L28.156 55.3964H31.516C32.4333 55.3964 33.1213 55.2044 33.58 54.8204C34.0493 54.4258 34.284 53.8764 34.284 53.1724C34.284 52.4578 34.0493 51.9084 33.58 51.5244C33.1213 51.1404 32.4333 50.9484 31.516 50.9484H28.156L29.084 49.9244V56.4044ZM41.4339 60.5004C40.5592 60.5004 39.7805 60.3138 39.0979 59.9404C38.4152 59.5564 37.8765 59.0338 37.4819 58.3724C37.0872 57.7111 36.8899 56.9591 36.8899 56.1164C36.8899 55.2631 37.0872 54.5111 37.4819 53.8604C37.8765 53.1991 38.4152 52.6818 39.0979 52.3084C39.7805 51.9351 40.5592 51.7484 41.4339 51.7484C42.3192 51.7484 43.1032 51.9351 43.7859 52.3084C44.4792 52.6818 45.0179 53.1938 45.4019 53.8444C45.7965 54.4951 45.9939 55.2524 45.9939 56.1164C45.9939 56.9591 45.7965 57.7111 45.4019 58.3724C45.0179 59.0338 44.4792 59.5564 43.7859 59.9404C43.1032 60.3138 42.3192 60.5004 41.4339 60.5004ZM41.4339 58.7884C41.9245 58.7884 42.3619 58.6818 42.7459 58.4684C43.1299 58.2551 43.4285 57.9458 43.6419 57.5404C43.8659 57.1351 43.9779 56.6604 43.9779 56.1164C43.9779 55.5618 43.8659 55.0871 43.6419 54.6924C43.4285 54.2871 43.1299 53.9778 42.7459 53.7644C42.3619 53.5511 41.9299 53.4444 41.4499 53.4444C40.9592 53.4444 40.5219 53.5511 40.1379 53.7644C39.7645 53.9778 39.4659 54.2871 39.2419 54.6924C39.0179 55.0871 38.9059 55.5618 38.9059 56.1164C38.9059 56.6604 39.0179 57.1351 39.2419 57.5404C39.4659 57.9458 39.7645 58.2551 40.1379 58.4684C40.5219 58.6818 40.9539 58.7884 41.4339 58.7884ZM52.0024 60.5004C51.309 60.5004 50.6744 60.3404 50.0984 60.0204C49.533 59.7004 49.0797 59.2204 48.7384 58.5804C48.4077 57.9298 48.2424 57.1084 48.2424 56.1164C48.2424 55.1138 48.4024 54.2924 48.7224 53.6524C49.053 53.0124 49.501 52.5378 50.0664 52.2284C50.6317 51.9084 51.277 51.7484 52.0024 51.7484C52.845 51.7484 53.5864 51.9298 54.2264 52.2924C54.877 52.6551 55.389 53.1618 55.7624 53.8124C56.1464 54.4631 56.3384 55.2311 56.3384 56.1164C56.3384 57.0018 56.1464 57.7751 55.7624 58.4364C55.389 59.0871 54.877 59.5938 54.2264 59.9564C53.5864 60.3191 52.845 60.5004 52.0024 60.5004ZM47.2664 63.4924V51.8444H49.1704V53.8604L49.1064 56.1324L49.2664 58.4044V63.4924H47.2664ZM51.7784 58.7884C52.2584 58.7884 52.685 58.6818 53.0584 58.4684C53.4424 58.2551 53.7464 57.9458 53.9704 57.5404C54.1944 57.1351 54.3064 56.6604 54.3064 56.1164C54.3064 55.5618 54.1944 55.0871 53.9704 54.6924C53.7464 54.2871 53.4424 53.9778 53.0584 53.7644C52.685 53.5511 52.2584 53.4444 51.7784 53.4444C51.2984 53.4444 50.8664 53.5511 50.4824 53.7644C50.0984 53.9778 49.7944 54.2871 49.5704 54.6924C49.3464 55.0871 49.2344 55.5618 49.2344 56.1164C49.2344 56.6604 49.3464 57.1351 49.5704 57.5404C49.7944 57.9458 50.0984 58.2551 50.4824 58.4684C50.8664 58.6818 51.2984 58.7884 51.7784 58.7884ZM61.2111 60.5004C60.4858 60.5004 59.8458 60.3671 59.2911 60.1004C58.7365 59.8231 58.3045 59.4071 57.9951 58.8524C57.6858 58.2871 57.5311 57.5778 57.5311 56.7244V51.8444H59.5311V56.4524C59.5311 57.2204 59.7018 57.7964 60.0431 58.1804C60.3951 58.5538 60.8911 58.7404 61.5311 58.7404C62.0005 58.7404 62.4058 58.6444 62.7471 58.4524C63.0991 58.2604 63.3711 57.9724 63.5631 57.5884C63.7658 57.2044 63.8671 56.7298 63.8671 56.1644V51.8444H65.8671V60.3884H63.9631V58.0844L64.2991 58.7884C64.0111 59.3431 63.5898 59.7698 63.0351 60.0684C62.4805 60.3564 61.8725 60.5004 61.2111 60.5004ZM67.8457 60.3884V48.5164H69.8457V60.3884H67.8457ZM77.0947 60.3884V58.6604L76.9827 58.2924V55.2684C76.9827 54.6818 76.8067 54.2284 76.4547 53.9084C76.1027 53.5778 75.5694 53.4124 74.8547 53.4124C74.3747 53.4124 73.9001 53.4871 73.4307 53.6364C72.9721 53.7858 72.5827 53.9938 72.2627 54.2604L71.4787 52.8044C71.9374 52.4524 72.4814 52.1911 73.1107 52.0204C73.7507 51.8391 74.4121 51.7484 75.0947 51.7484C76.3321 51.7484 77.2867 52.0471 77.9587 52.6444C78.6414 53.2311 78.9827 54.1431 78.9827 55.3804V60.3884H77.0947ZM74.4067 60.5004C73.7667 60.5004 73.2067 60.3938 72.7267 60.1804C72.2467 59.9564 71.8734 59.6524 71.6067 59.2684C71.3507 58.8738 71.2227 58.4311 71.2227 57.9404C71.2227 57.4604 71.3347 57.0284 71.5587 56.6444C71.7934 56.2604 72.1721 55.9564 72.6947 55.7324C73.2174 55.5084 73.9107 55.3964 74.7747 55.3964H77.2547V56.7244H74.9187C74.2361 56.7244 73.7774 56.8364 73.5427 57.0604C73.3081 57.2738 73.1907 57.5404 73.1907 57.8604C73.1907 58.2231 73.3347 58.5111 73.6227 58.7244C73.9107 58.9378 74.3107 59.0444 74.8227 59.0444C75.3134 59.0444 75.7507 58.9324 76.1347 58.7084C76.5294 58.4844 76.8121 58.1538 76.9827 57.7164L77.3187 58.9164C77.1267 59.4178 76.7801 59.8071 76.2787 60.0844C75.7881 60.3618 75.1641 60.5004 74.4067 60.5004ZM80.9095 60.3884V51.8444H82.8135V54.1964L82.5895 53.5084C82.8455 52.9324 83.2455 52.4951 83.7895 52.1964C84.3442 51.8978 85.0322 51.7484 85.8535 51.7484V53.6524C85.7682 53.6311 85.6882 53.6204 85.6135 53.6204C85.5388 53.6098 85.4642 53.6044 85.3895 53.6044C84.6322 53.6044 84.0295 53.8284 83.5815 54.2764C83.1335 54.7138 82.9095 55.3698 82.9095 56.2444V60.3884H80.9095ZM92.6581 60.3884L89.5221 51.8444H91.4101L94.0981 59.3804H93.2021L96.0181 51.8444H97.6981L100.434 59.3804H99.5541L102.322 51.8444H104.098L100.946 60.3884H99.0261L96.5301 53.7164H97.1221L94.5781 60.3884H92.6581ZM108.439 60.5004C107.564 60.5004 106.786 60.3138 106.103 59.9404C105.42 59.5564 104.882 59.0338 104.487 58.3724C104.092 57.7111 103.895 56.9591 103.895 56.1164C103.895 55.2631 104.092 54.5111 104.487 53.8604C104.882 53.1991 105.42 52.6818 106.103 52.3084C106.786 51.9351 107.564 51.7484 108.439 51.7484C109.324 51.7484 110.108 51.9351 110.791 52.3084C111.484 52.6818 112.023 53.1938 112.407 53.8444C112.802 54.4951 112.999 55.2524 112.999 56.1164C112.999 56.9591 112.802 57.7111 112.407 58.3724C112.023 59.0338 111.484 59.5564 110.791 59.9404C110.108 60.3138 109.324 60.5004 108.439 60.5004ZM108.439 58.7884C108.93 58.7884 109.367 58.6818 109.751 58.4684C110.135 58.2551 110.434 57.9458 110.647 57.5404C110.871 57.1351 110.983 56.6604 110.983 56.1164C110.983 55.5618 110.871 55.0871 110.647 54.6924C110.434 54.2871 110.135 53.9778 109.751 53.7644C109.367 53.5511 108.935 53.4444 108.455 53.4444C107.964 53.4444 107.527 53.5511 107.143 53.7644C106.77 53.9778 106.471 54.2871 106.247 54.6924C106.023 55.0871 105.911 55.5618 105.911 56.1164C105.911 56.6604 106.023 57.1351 106.247 57.5404C106.471 57.9458 106.77 58.2551 107.143 58.4684C107.527 58.6818 107.959 58.7884 108.439 58.7884ZM114.271 60.3884V51.8444H116.175V54.1964L115.951 53.5084C116.207 52.9324 116.607 52.4951 117.151 52.1964C117.706 51.8978 118.394 51.7484 119.215 51.7484V53.6524C119.13 53.6311 119.05 53.6204 118.975 53.6204C118.901 53.6098 118.826 53.6044 118.751 53.6044C117.994 53.6044 117.391 53.8284 116.943 54.2764C116.495 54.7138 116.271 55.3698 116.271 56.2444V60.3884H114.271ZM123.81 60.5004C122.989 60.5004 122.247 60.3191 121.586 59.9564C120.935 59.5831 120.423 59.0711 120.05 58.4204C119.677 57.7698 119.49 57.0018 119.49 56.1164C119.49 55.2311 119.677 54.4631 120.05 53.8124C120.423 53.1618 120.935 52.6551 121.586 52.2924C122.247 51.9298 122.989 51.7484 123.81 51.7484C124.525 51.7484 125.165 51.9084 125.73 52.2284C126.295 52.5378 126.743 53.0124 127.074 53.6524C127.405 54.2924 127.57 55.1138 127.57 56.1164C127.57 57.1084 127.41 57.9298 127.09 58.5804C126.77 59.2204 126.327 59.7004 125.762 60.0204C125.197 60.3404 124.546 60.5004 123.81 60.5004ZM124.05 58.7884C124.53 58.7884 124.957 58.6818 125.33 58.4684C125.714 58.2551 126.018 57.9458 126.242 57.5404C126.477 57.1351 126.594 56.6604 126.594 56.1164C126.594 55.5618 126.477 55.0871 126.242 54.6924C126.018 54.2871 125.714 53.9778 125.33 53.7644C124.957 53.5511 124.53 53.4444 124.05 53.4444C123.57 53.4444 123.138 53.5511 122.754 53.7644C122.381 53.9778 122.077 54.2871 121.842 54.6924C121.618 55.0871 121.506 55.5618 121.506 56.1164C121.506 56.6604 121.618 57.1351 121.842 57.5404C122.077 57.9458 122.381 58.2551 122.754 58.4684C123.138 58.6818 123.57 58.7884 124.05 58.7884ZM126.642 60.3884V58.3724L126.722 56.1004L126.562 53.8284V48.5164H128.546V60.3884H126.642ZM133.178 60.5004C132.464 60.5004 131.776 60.4098 131.114 60.2284C130.464 60.0364 129.946 59.8071 129.562 59.5404L130.33 58.0204C130.714 58.2658 131.173 58.4684 131.706 58.6284C132.24 58.7884 132.773 58.8684 133.306 58.8684C133.936 58.8684 134.389 58.7831 134.666 58.6124C134.954 58.4418 135.098 58.2124 135.098 57.9244C135.098 57.6898 135.002 57.5138 134.81 57.3964C134.618 57.2684 134.368 57.1724 134.058 57.1084C133.749 57.0444 133.402 56.9858 133.018 56.9324C132.645 56.8791 132.266 56.8098 131.882 56.7244C131.509 56.6284 131.168 56.4951 130.858 56.3244C130.549 56.1431 130.298 55.9031 130.106 55.6044C129.914 55.3058 129.818 54.9111 129.818 54.4204C129.818 53.8764 129.973 53.4071 130.282 53.0124C130.592 52.6071 131.024 52.2978 131.578 52.0844C132.144 51.8604 132.81 51.7484 133.578 51.7484C134.154 51.7484 134.736 51.8124 135.322 51.9404C135.909 52.0684 136.394 52.2498 136.778 52.4844L136.01 54.0044C135.605 53.7591 135.194 53.5938 134.778 53.5084C134.373 53.4124 133.968 53.3644 133.562 53.3644C132.954 53.3644 132.501 53.4551 132.202 53.6364C131.914 53.8178 131.77 54.0471 131.77 54.3244C131.77 54.5804 131.866 54.7724 132.058 54.9004C132.25 55.0284 132.501 55.1298 132.81 55.2044C133.12 55.2791 133.461 55.3431 133.834 55.3964C134.218 55.4391 134.597 55.5084 134.97 55.6044C135.344 55.7004 135.685 55.8338 135.994 56.0044C136.314 56.1644 136.57 56.3938 136.762 56.6924C136.954 56.9911 137.05 57.3804 137.05 57.8604C137.05 58.3938 136.89 58.8578 136.57 59.2524C136.261 59.6471 135.818 59.9564 135.242 60.1804C134.666 60.3938 133.978 60.5004 133.178 60.5004Z" fill="#585858"/>
<path d="M211.777 8.5V57.2768" stroke="#E0E0E0" stroke-width="1.21942"/>
<path d="M264.506 8.61157C264.506 7.78657 264.799 7.08057 265.386 6.49357C265.974 5.90557 266.681 5.61157 267.506 5.61157L279.506 5.61157C280.331 5.61157 281.037 5.90557 281.624 6.49357C282.212 7.08057 282.506 7.78657 282.506 8.61157L282.506 32.6116C282.506 33.4366 282.212 34.1431 281.624 34.7311C281.037 35.3181 280.331 35.6116 279.506 35.6116L267.506 35.6116C266.681 35.6116 265.974 35.3181 265.386 34.7311C264.799 34.1431 264.506 33.4366 264.506 32.6116L264.506 8.61157ZM269.006 14.6116C269.006 15.0366 269.15 15.3931 269.438 15.6811C269.725 15.9681 270.081 16.1116 270.506 16.1116L272.006 16.1116L272.006 17.6116C272.006 18.0366 272.15 18.3931 272.438 18.6811C272.725 18.9681 273.081 19.1116 273.506 19.1116C273.931 19.1116 274.287 18.9681 274.575 18.6811C274.862 18.3931 275.006 18.0366 275.006 17.6116L275.006 16.1116L276.506 16.1116C276.931 16.1116 277.287 15.9681 277.575 15.6811C277.862 15.3931 278.006 15.0366 278.006 14.6116C278.006 14.1866 277.862 13.8301 277.575 13.5421C277.287 13.2551 276.931 13.1116 276.506 13.1116L275.006 13.1116L275.006 11.6116C275.006 11.1866 274.862 10.8301 274.575 10.5421C274.287 10.2551 273.931 10.1116 273.506 10.1116C273.081 10.1116 272.725 10.2551 272.438 10.5421C272.15 10.8301 272.006 11.1866 272.006 11.6116L272.006 13.1116L270.506 13.1116C270.081 13.1116 269.725 13.2551 269.438 13.5421C269.15 13.8301 269.006 14.1866 269.006 14.6116ZM269.006 24.3616C269.006 24.9866 269.225 25.5176 269.663 25.9546C270.1 26.3926 270.631 26.6116 271.256 26.6116C271.881 26.6116 272.412 26.3926 272.849 25.9546C273.287 25.5176 273.506 24.9866 273.506 24.3616C273.506 23.7366 273.287 23.2056 272.849 22.7686C272.412 22.3306 271.881 22.1116 271.256 22.1116C270.631 22.1116 270.1 22.3306 269.663 22.7686C269.225 23.2056 269.006 23.7366 269.006 24.3616ZM273.506 28.8616C273.506 29.4866 273.725 30.0176 274.163 30.4546C274.6 30.8926 275.131 31.1116 275.756 31.1116C276.381 31.1116 276.912 30.8926 277.349 30.4546C277.787 30.0176 278.006 29.4866 278.006 28.8616C278.006 28.2366 277.787 27.7056 277.349 27.2686C276.912 26.8306 276.381 26.6116 275.756 26.6116C275.131 26.6116 274.6 26.8306 274.163 27.2686C273.725 27.7056 273.506 28.2366 273.506 28.8616Z" fill="#2B788B"/>
<path d="M307.194 30.3884C315.86 29.9084 322.58 29.3751 327.354 28.7884C326.9 30.1751 326.554 31.6418 326.314 33.1884C326.074 34.7351 325.954 36.1351 325.954 37.3884H297.354L297.314 36.5484C297.314 33.9351 298.074 31.6684 299.594 29.7484C301.14 27.8284 303.287 26.0551 306.034 24.4284C306.834 23.9484 308.087 23.3351 309.794 22.5884C312.007 21.6284 313.714 20.7884 314.914 20.0684C316.114 19.3218 316.714 18.5884 316.714 17.8684C316.714 16.9618 316.34 16.2418 315.594 15.7084C314.847 15.1751 313.687 14.9084 312.114 14.9084C310.38 14.9084 309.06 15.3484 308.154 16.2284C307.274 17.1084 306.834 18.2284 306.834 19.5884C306.834 20.0151 306.874 20.4551 306.954 20.9084C303.594 20.4818 300.327 20.1884 297.154 20.0284C297.154 17.7618 297.74 15.7218 298.914 13.9084C300.114 12.0684 301.9 10.6151 304.274 9.54843C306.674 8.48176 309.607 7.94843 313.074 7.94843C316.247 7.94843 318.887 8.38843 320.994 9.26843C323.127 10.1218 324.687 11.2151 325.674 12.5484C326.687 13.8551 327.194 15.2018 327.194 16.5884C327.194 18.1884 326.834 19.5618 326.114 20.7084C325.42 21.8551 324.407 22.8818 323.074 23.7884C321.767 24.6684 320.007 25.6284 317.794 26.6684C317.474 26.8284 316.954 27.0151 316.234 27.2284C315.514 27.4151 315.06 27.5351 314.874 27.5884C312.98 28.1484 311.474 28.6151 310.354 28.9884C309.234 29.3618 308.18 29.8284 307.194 30.3884Z" fill="black"/>
<path d="M343.512 19.8684H350.632V27.6684H343.512V34.8284H335.712V27.6684H328.552V19.8684H335.712V12.7084H343.512V19.8684Z" fill="#2B788B"/>
<path d="M262.058 60.3884V49.1884H263.77L268.666 57.3644H267.77L272.586 49.1884H274.298L274.314 60.3884H272.346L272.33 52.2764H272.746L268.65 59.1084H267.722L263.562 52.2764H264.042V60.3884H262.058ZM276.507 60.3884V51.8444H278.507V60.3884H276.507ZM277.515 50.4364C277.142 50.4364 276.832 50.3191 276.587 50.0844C276.352 49.8498 276.235 49.5671 276.235 49.2364C276.235 48.8951 276.352 48.6124 276.587 48.3884C276.832 48.1538 277.142 48.0364 277.515 48.0364C277.888 48.0364 278.192 48.1484 278.427 48.3724C278.672 48.5858 278.795 48.8578 278.795 49.1884C278.795 49.5404 278.678 49.8391 278.443 50.0844C278.208 50.3191 277.899 50.4364 277.515 50.4364ZM285.34 51.7484C286.023 51.7484 286.631 51.8818 287.164 52.1484C287.708 52.4151 288.135 52.8258 288.444 53.3804C288.753 53.9244 288.908 54.6284 288.908 55.4924V60.3884H286.908V55.7484C286.908 54.9911 286.727 54.4258 286.364 54.0524C286.012 53.6791 285.516 53.4924 284.876 53.4924C284.407 53.4924 283.991 53.5884 283.628 53.7804C283.265 53.9724 282.983 54.2604 282.78 54.6444C282.588 55.0178 282.492 55.4924 282.492 56.0684V60.3884H280.492V51.8444H282.396V54.1484L282.06 53.4444C282.359 52.9004 282.791 52.4844 283.356 52.1964C283.932 51.8978 284.593 51.7484 285.34 51.7484ZM290.805 60.3884V51.8444H292.805V60.3884H290.805ZM291.813 50.4364C291.44 50.4364 291.13 50.3191 290.885 50.0844C290.65 49.8498 290.533 49.5671 290.533 49.2364C290.533 48.8951 290.65 48.6124 290.885 48.3884C291.13 48.1538 291.44 48.0364 291.813 48.0364C292.186 48.0364 292.49 48.1484 292.725 48.3724C292.97 48.5858 293.093 48.8578 293.093 49.1884C293.093 49.5404 292.976 49.8391 292.741 50.0844C292.506 50.3191 292.197 50.4364 291.813 50.4364ZM294.358 56.7724V55.1084H298.758V56.7724H294.358ZM304.334 63.6044C303.545 63.6044 302.772 63.4978 302.014 63.2844C301.268 63.0818 300.654 62.7831 300.174 62.3884L301.07 60.8844C301.444 61.1938 301.913 61.4391 302.478 61.6204C303.054 61.8124 303.636 61.9084 304.222 61.9084C305.161 61.9084 305.849 61.6898 306.286 61.2524C306.724 60.8258 306.942 60.1804 306.942 59.3164V57.7964L307.102 55.8604L307.038 53.9244V51.8444H308.942V59.0924C308.942 60.6391 308.548 61.7751 307.758 62.5004C306.969 63.2364 305.828 63.6044 304.334 63.6044ZM304.078 60.0044C303.268 60.0044 302.532 59.8338 301.87 59.4924C301.22 59.1404 300.702 58.6551 300.318 58.0364C299.945 57.4178 299.758 56.6924 299.758 55.8604C299.758 55.0391 299.945 54.3191 300.318 53.7004C300.702 53.0818 301.22 52.6018 301.87 52.2604C302.532 51.9191 303.268 51.7484 304.078 51.7484C304.804 51.7484 305.454 51.8924 306.03 52.1804C306.606 52.4684 307.065 52.9164 307.406 53.5244C307.758 54.1324 307.934 54.9111 307.934 55.8604C307.934 56.8098 307.758 57.5938 307.406 58.2124C307.065 58.8204 306.606 59.2738 306.03 59.5724C305.454 59.8604 304.804 60.0044 304.078 60.0044ZM304.382 58.3084C304.884 58.3084 305.332 58.2071 305.726 58.0044C306.121 57.7911 306.425 57.5031 306.638 57.1404C306.862 56.7671 306.974 56.3404 306.974 55.8604C306.974 55.3804 306.862 54.9591 306.638 54.5964C306.425 54.2231 306.121 53.9404 305.726 53.7484C305.332 53.5458 304.884 53.4444 304.382 53.4444C303.881 53.4444 303.428 53.5458 303.022 53.7484C302.628 53.9404 302.318 54.2231 302.094 54.5964C301.881 54.9591 301.774 55.3804 301.774 55.8604C301.774 56.3404 301.881 56.7671 302.094 57.1404C302.318 57.5031 302.628 57.7911 303.022 58.0044C303.428 58.2071 303.881 58.3084 304.382 58.3084ZM316.196 60.3884V58.6604L316.084 58.2924V55.2684C316.084 54.6818 315.908 54.2284 315.556 53.9084C315.204 53.5778 314.671 53.4124 313.956 53.4124C313.476 53.4124 313.001 53.4871 312.532 53.6364C312.073 53.7858 311.684 53.9938 311.364 54.2604L310.58 52.8044C311.039 52.4524 311.583 52.1911 312.212 52.0204C312.852 51.8391 313.513 51.7484 314.196 51.7484C315.433 51.7484 316.388 52.0471 317.06 52.6444C317.743 53.2311 318.084 54.1431 318.084 55.3804V60.3884H316.196ZM313.508 60.5004C312.868 60.5004 312.308 60.3938 311.828 60.1804C311.348 59.9564 310.975 59.6524 310.708 59.2684C310.452 58.8738 310.324 58.4311 310.324 57.9404C310.324 57.4604 310.436 57.0284 310.66 56.6444C310.895 56.2604 311.273 55.9564 311.796 55.7324C312.319 55.5084 313.012 55.3964 313.876 55.3964H316.356V56.7244H314.02C313.337 56.7244 312.879 56.8364 312.644 57.0604C312.409 57.2738 312.292 57.5404 312.292 57.8604C312.292 58.2231 312.436 58.5111 312.724 58.7244C313.012 58.9378 313.412 59.0444 313.924 59.0444C314.415 59.0444 314.852 58.9324 315.236 58.7084C315.631 58.4844 315.913 58.1538 316.084 57.7164L316.42 58.9164C316.228 59.4178 315.881 59.8071 315.38 60.0844C314.889 60.3618 314.265 60.5004 313.508 60.5004ZM330.795 51.7484C331.477 51.7484 332.08 51.8818 332.603 52.1484C333.136 52.4151 333.552 52.8258 333.851 53.3804C334.149 53.9244 334.299 54.6284 334.299 55.4924V60.3884H332.299V55.7484C332.299 54.9911 332.133 54.4258 331.803 54.0524C331.472 53.6791 330.997 53.4924 330.379 53.4924C329.941 53.4924 329.552 53.5884 329.211 53.7804C328.88 53.9724 328.619 54.2551 328.427 54.6284C328.245 55.0018 328.155 55.4764 328.155 56.0524V60.3884H326.155V55.7484C326.155 54.9911 325.989 54.4258 325.659 54.0524C325.328 53.6791 324.853 53.4924 324.235 53.4924C323.797 53.4924 323.408 53.5884 323.067 53.7804C322.736 53.9724 322.475 54.2551 322.283 54.6284C322.101 55.0018 322.011 55.4764 322.011 56.0524V60.3884H320.011V51.8444H321.915V54.1164L321.579 53.4444C321.867 52.8898 322.283 52.4684 322.827 52.1804C323.381 51.8924 324.011 51.7484 324.715 51.7484C325.515 51.7484 326.208 51.9458 326.795 52.3404C327.392 52.7351 327.787 53.3324 327.979 54.1324L327.195 53.8604C327.472 53.2204 327.931 52.7084 328.571 52.3244C329.211 51.9404 329.952 51.7484 330.795 51.7484ZM340.246 60.5004C339.297 60.5004 338.465 60.3138 337.75 59.9404C337.046 59.5564 336.497 59.0338 336.102 58.3724C335.718 57.7111 335.526 56.9591 335.526 56.1164C335.526 55.2631 335.713 54.5111 336.086 53.8604C336.47 53.1991 336.993 52.6818 337.654 52.3084C338.326 51.9351 339.089 51.7484 339.942 51.7484C340.774 51.7484 341.515 51.9298 342.166 52.2924C342.817 52.6551 343.329 53.1671 343.702 53.8284C344.075 54.4898 344.262 55.2684 344.262 56.1644C344.262 56.2498 344.257 56.3458 344.246 56.4524C344.246 56.5591 344.241 56.6604 344.23 56.7564H337.11V55.4284H343.174L342.39 55.8444C342.401 55.3538 342.299 54.9218 342.086 54.5484C341.873 54.1751 341.579 53.8818 341.206 53.6684C340.843 53.4551 340.422 53.3484 339.942 53.3484C339.451 53.3484 339.019 53.4551 338.646 53.6684C338.283 53.8818 337.995 54.1804 337.782 54.5644C337.579 54.9378 337.478 55.3804 337.478 55.8924V56.2124C337.478 56.7244 337.595 57.1778 337.83 57.5724C338.065 57.9671 338.395 58.2711 338.822 58.4844C339.249 58.6978 339.739 58.8044 340.294 58.8044C340.774 58.8044 341.206 58.7298 341.59 58.5804C341.974 58.4311 342.315 58.1964 342.614 57.8764L343.686 59.1084C343.302 59.5564 342.817 59.9031 342.23 60.1484C341.654 60.3831 340.993 60.5004 340.246 60.5004ZM348.183 60.5004C347.468 60.5004 346.78 60.4098 346.119 60.2284C345.468 60.0364 344.951 59.8071 344.567 59.5404L345.335 58.0204C345.719 58.2658 346.178 58.4684 346.711 58.6284C347.244 58.7884 347.778 58.8684 348.311 58.8684C348.94 58.8684 349.394 58.7831 349.671 58.6124C349.959 58.4418 350.103 58.2124 350.103 57.9244C350.103 57.6898 350.007 57.5138 349.815 57.3964C349.623 57.2684 349.372 57.1724 349.063 57.1084C348.754 57.0444 348.407 56.9858 348.023 56.9324C347.65 56.8791 347.271 56.8098 346.887 56.7244C346.514 56.6284 346.172 56.4951 345.863 56.3244C345.554 56.1431 345.303 55.9031 345.111 55.6044C344.919 55.3058 344.823 54.9111 344.823 54.4204C344.823 53.8764 344.978 53.4071 345.287 53.0124C345.596 52.6071 346.028 52.2978 346.583 52.0844C347.148 51.8604 347.815 51.7484 348.583 51.7484C349.159 51.7484 349.74 51.8124 350.327 51.9404C350.914 52.0684 351.399 52.2498 351.783 52.4844L351.015 54.0044C350.61 53.7591 350.199 53.5938 349.783 53.5084C349.378 53.4124 348.972 53.3644 348.567 53.3644C347.959 53.3644 347.506 53.4551 347.207 53.6364C346.919 53.8178 346.775 54.0471 346.775 54.3244C346.775 54.5804 346.871 54.7724 347.063 54.9004C347.255 55.0284 347.506 55.1298 347.815 55.2044C348.124 55.2791 348.466 55.3431 348.839 55.3964C349.223 55.4391 349.602 55.5084 349.975 55.6044C350.348 55.7004 350.69 55.8338 350.999 56.0044C351.319 56.1644 351.575 56.3938 351.767 56.6924C351.959 56.9911 352.055 57.3804 352.055 57.8604C352.055 58.3938 351.895 58.8578 351.575 59.2524C351.266 59.6471 350.823 59.9564 350.247 60.1804C349.671 60.3938 348.983 60.5004 348.183 60.5004Z" fill="#585858"/>
</svg>
